<?xml version="1.0" encoding="UTF-8"?>
<svg id="Layer_1" xmlns="http://www.w3.org/2000/svg" version="1.1" viewBox="0 0 316.34 316.34">
  <!-- Generator: Adobe Illustrator 30.3.0, SVG Export Plug-In . SVG Version: 2.1.3 Build 182)  -->
  <defs>
    <style>
      .st0, .st1 {
        fill: #1b1f23;
      }

      .st1, .st2, .st3 {
        stroke: #000;
        stroke-miterlimit: 10;
        stroke-width: 4px;
      }

      .st1, .st3 {
        display: none;
      }

      .st2 {
        fill: none;
      }
    </style>
  </defs>
  <path class="st3" d="M305.3-5.61v284.35h-73.6c-6.72-2.97-16.57-5.66-25.14-12.35-10.51-8.22-17.57-29.56-17.45-33.08.51-15.44,25.22.63,50.8-76.93,10.62-32.21.48-67.81-15.78-84.02-4.34-4.34-19.55-16.37-34.85-20.18-55.86-13.9-81.99,19.33-86.69,43.09-4.83,24.38-14.52,29.9-17.17,47.24-3.17,20.67-4.12,36.57,4.02,50.9,3.36,5.93,11.45,17.01,15.59,21.4,6.31,6.68.04,29.18-20.07,36.5,0,0-9.46,4.05-17.92,5.72-25.79,5.07-40.3,11.63-46.65,16.16V-5.61h284.91Z"/>
  <g>
    <path class="st0" d="M316.34,158.17c0,52.12-25.21,98.36-64.1,127.17-4.67-1.34-13.02-3.8-20.54-6.26-11.2-3.67-16.57-5.66-25.14-12.35-10.51-8.22-17.57-29.56-17.45-33.08.51-15.44,25.22.63,50.8-76.93,10.62-32.21.48-67.81-15.78-84.02-4.34-4.34-19.55-16.37-34.85-20.18-55.86-13.9-81.99,19.33-86.69,43.09-4.83,24.38-14.52,29.9-17.17,47.24-3.17,20.67-4.12,36.57,4.02,50.9,3.36,5.93,11.45,17.01,15.59,21.4,6.31,6.68.04,29.18-20.07,36.5,0,0-9.46,4.05-17.92,5.72-10.61,2.08-19.3,4.42-26.31,6.76C15.41,236.08,0,198.93,0,158.17,0,70.81,70.82,0,158.17,0s158.17,70.81,158.17,158.17Z"/>
    <path class="st0" d="M316.34,158.17c0,52.12-25.21,98.36-64.1,127.17-4.67-1.34-13.02-3.8-20.54-6.26-11.2-3.67-16.57-5.66-25.14-12.35-10.51-8.22-17.57-29.56-17.45-33.08.51-15.44,25.22.63,50.8-76.93,10.62-32.21.48-67.81-15.78-84.02-4.34-4.34-19.55-16.37-34.85-20.18-55.86-13.9-81.99,19.33-86.69,43.09-4.83,24.38-14.52,29.9-17.17,47.24-3.17,20.67-4.12,36.57,4.02,50.9,3.36,5.93,11.45,17.01,15.59,21.4,6.31,6.68.04,29.18-20.07,36.5,0,0-9.46,4.05-17.92,5.72-10.61,2.08-19.3,4.42-26.31,6.76C15.41,236.08,0,198.93,0,158.17,0,70.81,70.82,0,158.17,0s158.17,70.81,158.17,158.17Z"/>
  </g>
  <rect class="st1" x="385.76" y="299.31" height=".91"/>
  <path class="st2" d="M276.73,295.65"/>
</svg>