<?xml version="1.0" encoding="UTF-8"?>
<svg id="Layer_1" xmlns="http://www.w3.org/2000/svg" version="1.1" viewBox="0 0 1920 1080">
  <!-- Generator: Adobe Illustrator 30.3.0, SVG Export Plug-In . SVG Version: 2.1.3 Build 182)  -->
  <defs>
    <style>
      .st0 {
        fill: none;
        stroke: #000;
        stroke-miterlimit: 10;
        stroke-width: 4px;
      }
    </style>
  </defs>
  <path id="bench3" class="st0" d="M1024.42,691.31c5.64,1.29,9.32,2.37,14.96,3.67,5.08,1.17,10.26,2.34,15.45,1.93,16.44-1.3,32.23,5.66,47.9,10.81,9.1,2.99,18.38,5.4,27.74,7.45,6.73,1.48,13.64,2.77,20.46,1.84,4.39-.6,30.86.57,35.2,1.47,17.66,3.67,36.47,2.27,42.88,3.67,42.83,9.36,74.02,9.53,117.44,15.63,1.6.22,3.24.46,4.65,1.25"/>
  <path id="bench2" class="st0" d="M799.54,652.21c-2.29,0-11.14-1.5-13.43-1.5"/>
  <path id="bench1" class="st0" d="M709.12,634.24c-1.59-2.88-9.19-3.81-12.38-4.59-6.77-1.65-12.77-2.25-19.54-3.9-7.79-1.9-15.62-3.61-23.48-5.13-8.03-1.56-16.09-2.92-24.15-4.28-5.21-.88-10.42-1.76-15.62-2.64-15.01-2.54-30.03-5.07-45.04-7.61"/>
  <path id="full" class="st0" d="M936.43,401.12c7.43-3.47,12.11-11.36,5.81-18.04-4.15-4.39-12.71-15.23-15.59-21.4-7.27-15.55-4.69-33.44-1.53-54.11,2.65-17.34,6.33-23.88,14.68-44.03,8.87-21.4,26.9-57.55,86.69-43.09,15.33,3.71,24.4,8.37,34.85,20.18,22.47,25.4,22.14,45.27,13.15,77.96-21.57,78.41-47.66,67.55-48.17,82.99-.12,3.51,1.42,6.59,4.1,9.41,4.57,4.82,25.53,11.11,34.88,14.21,32.56,10.78,32.79,44.22,37.01,57.26,1.62,5.01,6.88,38.23,7.73,43.43,10.61,64.89,3.41,46.82,17.34,88.65,1.62,4.86,4.57,19.55,8.54,29.64,5.25,13.32,6.12,14.73,19.69,19.28,14.03,4.71,23.82,23.77,9.98,39.74-3.97,4.59-20.03,8.69-33.94,10.09-8.63.87-41.6-4.45-48.61-16.82-10.91-19.23-6.99-16.31-10.87-38.08-6.78-38.04-8.1-101.89-22.93-137.58,5.69,14.17,1.38,56.87-.46,74.29-1.88,17.87-1.87,32.61-6.42,49.99-7.51,28.69-16.18,47.22-32.61,71.91-13.3,20-36.04,37.68-36.03,61.7.01,41.17-4.57,92.64-15.45,132.34-5.59,20.39-9.4,30.12-24.43,44.99-12.16,12.04-31.21,22.16-48.31,22.93-9.49.43-23.24-1.53-29.96-8.25-11.24-11.25-5.7-21.56-1.56-36.91,2.23-8.24,4.45-16.48,6.68-24.73,11.48-42.52,11.88-87.86,11.08-131.89-.34-18.73-1.06-26.4,1.36-44.96,2.25-17.26,8.46-26.09,22.93-49.99,5.51-9.11,19.9-27.36,25.34-36.34-11.55,14.95-26.09,27.52-34.04,37.73-12.2,15.68-10.42,12.45-22.62,28.13-6.35,8.16-10.42,17.84-14.06,27.52-4.71,12.5-1.59,40.81-1.2,54.17.54,18.72,5.25,37.48,5.79,56.2.71,24.81,2.78,44.43-14.37,62.37-7.99,8.36-25.29,21.48-35.77,26.4-7.09,3.33-14.17,6.65-21.26,9.98-3.95,1.85-8,3.49-12.13,4.89-10.02,3.41-21.99,5.15-30.44-1.2-11.58-8.7-8.98-30.97-1.6-43.43s18.26-18.82,23.01-32.5c3.1-8.93,3.11-18.6,2.94-28.06-.85-45.83-18.67-109.58,1.57-150.71,3.69-7.5,14.06-25.38,33.44-47.41,6.31-7.17,21.85-21.97,28.62-28.72,26.15-26.06,32.81-70.99,39.44-107.31-3.81,21.17-19.64,53.04-29.81,72-18.22,33.97-23.36,43.41-54.57,66.04-14.8,10.73-33.55,14.67-57.25,9.35-8.95-2.01-17.74-10.95-19.09-20.02-2.95-19.74,22.13-19.53,38.57-34.28,17.89-16.05,17.03-12.55,32.1-41.73,5.11-9.9,31.07-58.49,35.77-69.71,4.7-11.21,11.07-27.24,16.97-36.69,11.8-18.9,20.11-37.8,39.59-48.61,16.09-8.93,52.54-3.14,65.43-9.17Z"/>
</svg>