<?xml version="1.0" encoding="UTF-8"?>
<svg id="Layer_1" xmlns="http://www.w3.org/2000/svg" version="1.1" viewBox="0 0 212.18 221.87">
  <!-- Generator: Adobe Illustrator 30.3.0, SVG Export Plug-In . SVG Version: 2.1.3 Build 182)  -->
  <defs>
    <style>
      .st0, .st1, .st2 {
        stroke: #000;
        stroke-miterlimit: 10;
        stroke-width: 4px;
      }

      .st1 {
        fill: #1b1f23;
      }

      .st1, .st2 {
        display: none;
      }

      .st2 {
        fill: none;
      }
    </style>
  </defs>
  <path class="st0" d="M271.21-52.5V231.85h-73.6c-6.72-2.97-16.57-5.66-25.14-12.35-10.51-8.22-17.57-29.56-17.45-33.08.51-15.44,25.22.63,50.8-76.93,10.62-32.21.48-67.81-15.78-84.02-4.34-4.34-19.55-16.37-34.85-20.18-55.86-13.9-81.99,19.33-86.69,43.09-4.83,24.38-14.52,29.9-17.17,47.24-3.17,20.67-4.12,36.57,4.02,50.9,3.36,5.93,11.45,17.01,15.59,21.4,6.31,6.68.04,29.18-20.07,36.5,0,0-9.46,4.05-17.92,5.72-25.79,5.07-40.3,11.63-46.65,16.16V-52.5h284.91Z"/>
  <path class="st2" d="M-17.47,231.16c-.58-.79.54-2.56,3.77-4.86,6.35-4.53,20.86-11.09,46.65-16.16,8.46-1.67,17.92-5.72,17.92-5.72,20.11-7.32,26.38-29.82,20.07-36.5-4.14-4.39-12.23-15.47-15.59-21.4-8.14-14.33-7.19-30.23-4.02-50.9,2.65-17.34,12.34-22.86,17.17-47.24,4.7-23.76,30.83-56.99,86.69-43.09,15.3,3.81,30.51,15.84,34.85,20.18,16.26,16.21,26.4,51.81,15.78,84.02-25.58,77.56-50.29,61.49-50.8,76.93-.12,3.52,6.94,24.86,17.45,33.08,8.57,6.69,18.42,9.38,25.14,12.35"/>
  <rect class="st1" x="351.67" y="252.41" width="0" height=".91"/>
</svg>